<svg xmlns="http://www.w3.org/2000/svg" width="416" height="473" viewBox="0 0 416 473" fill="none"><path d="M307.841 54.7213L394.742 1.51609C404.233 -3.33516 415.307 3.88848 415.307 17.0187V340.943C415.307 347.007 408.873 353.704 401.017 353.704H361.047C359.148 353.704 357.303 353.283 355.563 352.545C353.823 351.753 352.241 350.7 350.922 349.277C349.604 347.907 348.55 346.269 347.864 344.479C347.126 342.688 346.757 340.786 346.81 338.836V105.187L320.075 121.586C310.584 126.384 299.827 118.95 299.827 107.929V68.1171C299.827 62.4222 302.938 57.1997 307.841 54.7213ZM132.354 290.585C96.8662 290.585 67.0206 261.215 67.0206 218.397C67.0206 175 96.8662 146.209 132.354 146.209C167.842 146.209 197.107 174.947 197.107 218.397C197.107 261.215 167.842 290.585 132.354 290.585ZM212.874 82.8794C204.437 82.8794 199.375 88.1527 199.375 96.9586V112.198C184.135 92.8455 156.03 78.1338 127.872 78.1338C59.1637 78.1719 0 139.196 0 218.977C0 298.759 55.7362 353.915 126.132 353.915C139.367 354.03 152.075 351.332 164.203 345.9C176.384 340.521 186.93 332.823 195.947 322.856C195.419 378.593 167.262 403.798 118.855 403.798C92.9114 403.798 68.708 395.572 40.6026 376.8C33.273 371.527 24.7833 373.268 20.8813 381.493L3.95482 416.137C4.05312e-06 424.363 1.15998 431.956 9.01696 437.229C43.9773 460.695 85.0545 472.454 120.542 472.454C213.454 472.454 264.655 420.197 264.655 299.971V96.9586C264.655 88.1527 259.593 82.8794 251.156 82.8794H212.874Z" fill="white"></path></svg>